<svg width="37" height="37" viewBox="0 0 37 37" fill="none" xmlns="http://www.w3.org/2000/svg">
<path d="M1.03208 18.5C1.03208 8.85452 8.85422 1.03226 18.4997 1.03208C28.1464 1.03977 35.9679 8.85528 35.9679 18.5C35.9679 28.1456 28.1456 35.9679 18.5 35.9679C8.85441 35.9679 1.03208 28.1456 1.03208 18.5Z" fill="black" stroke="#EB0189" stroke-width="2.06416"/>
<path d="M22.6189 25.0151C23.4056 25.7671 23.4241 27.0052 22.6652 27.7847C21.9063 28.5642 20.6568 28.5825 19.8701 27.8305C19.8516 27.8122 19.8331 27.803 19.8239 27.7847L11.9292 19.9622C11.161 19.201 11.161 17.963 11.9292 17.1926L19.8239 9.37013C20.5828 8.59063 21.8322 8.57229 22.6189 9.32428C23.4056 10.0763 23.4241 11.3143 22.6652 12.0938C22.6467 12.1121 22.6374 12.1305 22.6189 12.1396L16.1218 18.5866L22.6189 25.0335V25.0151Z" fill="#EB0189"/>
</svg>
