<svg width="76" height="76" viewBox="0 0 76 76" fill="none" xmlns="http://www.w3.org/2000/svg">
<path d="M49.785 37.9999L73.058 14.7269C76.3119 11.473 76.3119 6.19569 73.058 2.94189C69.8041 -0.31191 64.5307 -0.31201 61.273 2.94189L38 26.2149L14.727 2.94189C11.477 -0.31201 6.19581 -0.31201 2.94201 2.94189C-0.311788 6.19579 -0.311888 11.4731 2.94201 14.7269L26.215 37.9999L2.94201 61.2729C-0.311888 64.5268 -0.311888 69.8002 2.94201 73.0579C4.56701 74.6868 6.70371 75.4993 8.83261 75.4993C10.9654 75.4993 13.0982 74.6868 14.7232 73.0579L38.0002 49.7849L61.2732 73.0579C62.9021 74.6868 65.0349 75.4993 67.1638 75.4993C69.2966 75.4993 71.4294 74.6868 73.0544 73.0579C76.3083 69.804 76.3083 64.5306 73.0544 61.2729L49.785 37.9999Z" fill="#EC008C"/>
</svg>
