<svg width="11" height="17" viewBox="0 0 11 17" fill="none" xmlns="http://www.w3.org/2000/svg">
<g clip-path="url(#clip0_66_408)">
<path d="M2.14683 6.2981C2.14683 5.38689 2.11934 4.47478 2.15291 3.56493C2.21195 1.95724 3.4528 0.736217 5.05778 0.662536C6.57534 0.592686 7.96738 1.70601 8.12849 3.25038C8.24453 4.36235 8.20217 5.49235 8.20465 6.61423C8.20668 7.52409 8.21276 8.43755 8.13841 9.3429C8.07622 10.1011 7.58231 10.5811 6.82792 10.7304C5.72632 10.9486 4.6175 10.9418 3.51567 10.7361C2.67634 10.5792 2.17905 10.002 2.15697 9.14416C2.13241 8.19623 2.15133 7.24717 2.15133 6.29855C2.14976 6.29855 2.1484 6.29855 2.14683 6.29855V6.2981Z" fill="#1B1B1B"/>
<path d="M2.7115 12.9602C1.20093 12.6781 0.111044 11.4005 0.0371375 9.85816C-0.0261785 8.53821 0.0105493 7.21331 0.0109999 5.89066C0.0109999 5.58264 0.13966 5.35326 0.489587 5.34155C0.793774 5.33141 0.974033 5.53645 0.97561 5.91567C0.980116 7.03891 0.972005 8.16215 0.974709 9.28538C0.97899 11.0476 2.01255 12.0801 3.76669 12.0796C4.74032 12.0794 5.71439 12.0591 6.68734 12.081C8.29187 12.117 9.43831 10.8252 9.3599 9.40233C9.29884 8.29486 9.34683 7.18154 9.35291 6.07069C9.35382 5.92423 9.34638 5.73924 9.42682 5.64078C9.53723 5.50558 9.74362 5.34019 9.88017 5.36273C10.0415 5.38909 10.238 5.57723 10.2993 5.74037C10.3736 5.9382 10.3263 6.18313 10.3259 6.40755C10.3241 7.45598 10.32 8.50419 10.3177 9.55262C10.3132 11.5461 8.81326 13.0517 6.81847 13.0623C6.26936 13.0652 3.51163 13.1098 2.71128 12.9604L2.7115 12.9602Z" fill="#1B1B1B"/>
<path d="M4.62264 15.6605C4.62264 15.1418 4.61926 14.6709 4.62489 14.2002C4.62625 14.078 4.63548 13.9487 4.67649 13.8356C4.76369 13.5961 4.94688 13.478 5.2042 13.5251C5.45972 13.5717 5.59108 13.7401 5.59266 13.9989C5.59581 14.5341 5.59356 15.069 5.59356 15.6618C5.74926 15.6618 5.88085 15.6618 6.01266 15.6618C6.42388 15.6625 6.83532 15.6558 7.24631 15.667C7.56401 15.6756 7.76658 15.8324 7.77559 16.1699C7.78371 16.4707 7.59083 16.6476 7.23932 16.6553C6.84073 16.6639 6.44168 16.6569 6.04286 16.6566C5.05819 16.6562 4.07375 16.6591 3.08909 16.6542C2.65467 16.6521 2.43272 16.4739 2.44218 16.1564C2.45165 15.8362 2.67765 15.6641 3.10396 15.6612C3.59877 15.6578 4.09381 15.6605 4.62219 15.6605H4.62264Z" fill="#1B1B1B"/>
</g>
<defs>
<clipPath id="clip0_66_408">
<rect width="10.3412" height="16" fill="white" transform="translate(0 0.659302)"/>
</clipPath>
</defs>
</svg>
