<svg width="48" height="48" viewBox="0 0 48 48" fill="none" xmlns="http://www.w3.org/2000/svg">
<circle cx="24" cy="24" r="24" fill="#EC008C"/>
<g clip-path="url(#clip0_170_58)">
<path d="M25.0084 32.7282C25.0084 33.2214 24.7234 33.6695 24.2774 33.8787C24.105 33.9603 23.9202 33.9997 23.7366 33.9997C23.4459 33.9997 23.1579 33.8998 22.9252 33.7069L15.9738 27.9466H12.2715C11.5694 27.9472 11 27.3775 11 26.6754V21.6095C11 20.9071 11.5694 20.3377 12.2715 20.3377H15.9741L22.9255 14.5774C23.3053 14.2626 23.832 14.1955 24.2777 14.4062C24.7234 14.6154 25.0087 15.0638 25.0087 15.5567L25.0084 32.7282Z" fill="white"/>
<path d="M36.6651 27.0984C37.698 28.1035 36.0967 29.6978 35.0985 28.665L32 25.5665L28.9015 28.665C27.8964 29.6978 26.302 28.0966 27.3349 27.0984L30.4334 23.9999L27.3349 20.9013C26.302 19.8962 27.9033 18.3019 28.9015 19.3348L32 22.4333L35.0985 19.3348C36.1036 18.3019 37.698 19.9032 36.6651 20.9013L33.5666 23.9999L36.6651 27.0984Z" fill="white"/>
</g>
<defs>
<clipPath id="clip0_170_58">
<rect width="28" height="28" fill="white" transform="translate(12 9.99988)"/>
</clipPath>
</defs>
</svg>
