<svg width="48" height="48" viewBox="0 0 48 48" fill="none" xmlns="http://www.w3.org/2000/svg">
<circle cx="24" cy="24.0001" r="24" fill="#EC008C"/>
<g clip-path="url(#clip0_170_66)">
<path d="M24.0084 32.7282C24.0084 33.2215 23.7234 33.6696 23.2774 33.8788C23.105 33.9603 22.9202 33.9998 22.7366 33.9998C22.4459 33.9998 22.1579 33.8999 21.9252 33.7069L14.9738 27.9467H11.2715C10.5694 27.9473 10 27.3776 10 26.6755V21.6096C10 20.9071 10.5694 20.3377 11.2715 20.3377H14.9741L21.9255 14.5775C22.3053 14.2627 22.832 14.1956 23.2777 14.4063C23.7234 14.6154 24.0087 15.0638 24.0087 15.5568L24.0084 32.7282ZM28.895 30.7414C28.864 30.7435 28.8342 30.7447 28.8035 30.7447C28.4676 30.7447 28.1438 30.6119 27.9046 30.3724L27.7345 30.2017C27.2885 29.7566 27.2361 29.0515 27.6117 28.5453C28.5639 27.2614 29.0665 25.7395 29.0665 24.143C29.0665 22.4257 28.4959 20.815 27.4161 19.4848C27.005 18.9792 27.0429 18.2449 27.5037 17.7845L27.6734 17.6144C27.9274 17.3604 28.2678 17.222 28.6362 17.2439C28.9949 17.262 29.3299 17.4308 29.5574 17.7089C31.0552 19.5417 31.8464 21.767 31.8464 24.1433C31.8464 26.3565 31.1467 28.4631 29.8225 30.2346C29.6013 30.5298 29.2631 30.7152 28.895 30.7414ZM34.152 34.6709C33.9221 34.9427 33.5895 35.1058 33.2335 35.1208C33.2161 35.1214 33.1983 35.122 33.1802 35.122C32.8435 35.122 32.5203 34.989 32.281 34.7497L32.114 34.5827C31.6472 34.1162 31.6156 33.3702 32.0399 32.8652C34.0906 30.4263 35.2204 27.3289 35.2204 24.143C35.2204 20.8292 34.0109 17.6391 31.8154 15.1605C31.3703 14.6573 31.3929 13.8956 31.8666 13.42L32.0333 13.253C32.2807 13.0044 32.6021 12.8675 32.9708 12.8792C33.3208 12.8892 33.6518 13.0439 33.8845 13.3057C36.5383 16.2935 38 20.1427 38 24.143C38.0006 27.9919 36.634 31.7309 34.152 34.6709Z" fill="white"/>
</g>
<defs>
<clipPath id="clip0_170_66">
<rect width="28" height="28" fill="white" transform="translate(10 10)"/>
</clipPath>
</defs>
</svg>
