<svg width="58" height="58" viewBox="0 0 58 58" fill="none" xmlns="http://www.w3.org/2000/svg">
<g filter="url(#filter0_d_91_8)">
<circle cx="29" cy="29" r="20" fill="#EC008C"/>
</g>
<g clip-path="url(#clip0_91_8)">
<path d="M24.0494 23.5276C22.4107 24.0333 20.666 23.1115 20.1603 21.4728C19.6546 19.8341 20.5764 18.0894 22.2151 17.5837C23.8538 17.078 25.5985 17.9997 26.1042 19.6385C26.6099 21.2772 25.6882 23.0219 24.0494 23.5276ZM22.4234 18.2586C21.1568 18.6495 20.4444 19.9979 20.8353 21.2645C21.2261 22.5311 22.5745 23.2435 23.8411 22.8527C25.1078 22.4618 25.8202 21.1134 25.4293 19.8468C25.0384 18.5801 23.69 17.8677 22.4234 18.2586Z" fill="white"/>
<path d="M24.4651 24.8744C22.0838 25.6093 19.5486 24.2699 18.8137 21.8885C18.0788 19.5071 19.4182 16.972 21.7996 16.2371C24.181 15.5021 26.7161 16.8416 27.451 19.2229C28.1859 21.6043 26.8465 24.1395 24.4651 24.8744ZM22.0079 16.912C19.9986 17.5321 18.8686 19.6709 19.4887 21.6802C20.1087 23.6895 22.2476 24.8195 24.2569 24.1994C26.2661 23.5794 27.3962 21.4405 26.7761 19.4312C26.156 17.422 24.0169 16.292 22.0079 16.912Z" fill="white"/>
<path d="M36.2191 25.7368C35.9626 24.9056 35.0939 24.4357 34.2786 24.6873L34.2486 24.6965C33.4684 24.9373 33.0205 25.7519 33.2085 26.5504L32.9812 25.8136C32.7246 24.9823 31.8559 24.5124 31.0406 24.764L31.0107 24.7732C30.2305 25.014 29.7826 25.8286 29.9706 26.6271L29.7432 25.8903C29.4867 25.059 28.618 24.5891 27.8026 24.8407L27.7727 24.85C26.9925 25.0907 26.5446 25.9053 26.7326 26.7038L24.7298 20.2139C24.4732 19.3826 23.6045 18.9127 22.7892 19.1643L22.7593 19.1736C21.9442 19.4251 21.4912 20.3029 21.7477 21.1342L24.6349 30.4896C24.4858 30.543 24.3421 30.6053 24.2043 30.6755L23.5674 28.6115C23.1803 27.3573 21.8681 26.6487 20.6368 27.0287L20.3894 27.1051C20.1405 27.1819 20.0023 27.4495 20.0805 27.7028L22.8031 36.5248C24.0929 40.7045 28.5267 43.047 32.7063 41.7572L32.8593 41.7099C36.7628 40.5053 39.0634 36.5583 38.2997 32.6374L38.3437 32.6238L36.2184 25.737L36.2191 25.7368Z" fill="white"/>
</g>
<defs>
<filter id="filter0_d_91_8" x="0" y="0" width="58" height="58" filterUnits="userSpaceOnUse" color-interpolation-filters="sRGB">
<feFlood flood-opacity="0" result="BackgroundImageFix"/>
<feColorMatrix in="SourceAlpha" type="matrix" values="0 0 0 0 0 0 0 0 0 0 0 0 0 0 0 0 0 0 127 0" result="hardAlpha"/>
<feOffset/>
<feGaussianBlur stdDeviation="4.5"/>
<feComposite in2="hardAlpha" operator="out"/>
<feColorMatrix type="matrix" values="0 0 0 0 0.885872 0 0 0 0 0.638566 0 0 0 0 0.785273 0 0 0 0.9 0"/>
<feBlend mode="normal" in2="BackgroundImageFix" result="effect1_dropShadow_91_8"/>
<feBlend mode="normal" in="SourceGraphic" in2="effect1_dropShadow_91_8" result="shape"/>
</filter>
<clipPath id="clip0_91_8">
<rect width="16" height="27.6016" fill="white" transform="translate(17 17.7181) rotate(-17.1506)"/>
</clipPath>
</defs>
</svg>
