<svg width="33" height="33" viewBox="0 0 33 33" fill="none" xmlns="http://www.w3.org/2000/svg">
<g clip-path="url(#clip0_734_381)">
<path d="M16.5 2.1285C20.3384 2.1285 23.9479 3.62346 26.6618 6.33817C29.3765 9.05288 30.8715 12.6616 30.8715 16.5C30.8715 20.3384 29.3765 23.9479 26.6618 26.6618C23.9471 29.3765 20.3384 30.8715 16.5 30.8715C12.6616 30.8715 9.05206 29.3765 6.33817 26.6618C3.62346 23.9471 2.1285 20.3384 2.1285 16.5C2.1285 12.6616 3.62346 9.05206 6.33817 6.33817C9.05288 3.62346 12.6616 2.1285 16.5 2.1285ZM16.5 0.5C7.66377 0.5 0.5 7.66377 0.5 16.5C0.5 25.3362 7.66377 32.5 16.5 32.5C25.3362 32.5 32.5 25.3362 32.5 16.5C32.5 7.66377 25.3362 0.5 16.5 0.5Z" fill="#00665C"/>
<path d="M7.39844 15.6205L22.5076 7.83789V10.0844L9.77523 16.4665V16.5316L22.5076 22.9145V25.161L7.39844 17.3785V15.6197V15.6205Z" fill="#00665C"/>
</g>
<defs>
<clipPath id="clip0_734_381">
<rect width="32" height="32" fill="white" transform="translate(0.5 0.5)"/>
</clipPath>
</defs>
</svg>
