<svg width="48" height="48" viewBox="0 0 48 48" fill="none" xmlns="http://www.w3.org/2000/svg">
<g clip-path="url(#clip0_758_2)">
<path d="M24 48C37.2548 48 48 37.2548 48 24C48 10.7452 37.2548 0 24 0C10.7452 0 0 10.7452 0 24C0 37.2548 10.7452 48 24 48Z" fill="#00665C"/>
<mask id="mask0_758_2" style="mask-type:luminance" maskUnits="userSpaceOnUse" x="10" y="10" width="28" height="28">
<path d="M38 10H10V38H38V10Z" fill="white"/>
</mask>
<g mask="url(#mask0_758_2)">
<path d="M24.0084 32.7286C24.0084 33.2219 23.7234 33.67 23.2774 33.8792C23.105 33.9607 22.9202 34.0001 22.7366 34.0001C22.4459 34.0001 22.1579 33.9002 21.9252 33.7073L14.9738 27.9471H11.2715C10.5694 27.9477 10 27.378 10 26.6759V21.6099C10 20.9075 10.5694 20.3381 11.2715 20.3381H14.9741L21.9255 14.5779C22.3053 14.2631 22.832 14.196 23.2777 14.4066C23.7234 14.6158 24.0087 15.0642 24.0087 15.5572L24.0084 32.7286ZM28.895 30.7417C28.864 30.7438 28.8342 30.745 28.8035 30.745C28.4676 30.745 28.1438 30.6123 27.9046 30.3728L27.7345 30.2021C27.2885 29.757 27.2361 29.0519 27.6117 28.5457C28.5639 27.2618 29.0665 25.7399 29.0665 24.1434C29.0665 22.4261 28.4959 20.8154 27.4161 19.4852C27.005 18.9796 27.0429 18.2453 27.5037 17.7848L27.6734 17.6148C27.9274 17.3608 28.2678 17.2224 28.6362 17.2443C28.9949 17.2624 29.3299 17.4312 29.5574 17.7093C31.0552 19.5421 31.8464 21.7673 31.8464 24.1437C31.8464 26.3569 31.1467 28.4635 29.8225 30.2349C29.6013 30.5302 29.2631 30.7156 28.895 30.7417ZM34.152 34.6713C33.9221 34.943 33.5895 35.1061 33.2335 35.1212C33.2161 35.1218 33.1983 35.1224 33.1802 35.1224C32.8435 35.1224 32.5203 34.9894 32.281 34.7501L32.114 34.5831C31.6472 34.1166 31.6156 33.3706 32.0399 32.8656C34.0906 30.4266 35.2204 27.3292 35.2204 24.1434C35.2204 20.8296 34.0109 17.6395 31.8154 15.1608C31.3703 14.6576 31.3929 13.8959 31.8666 13.4204L32.0333 13.2534C32.2807 13.0048 32.6021 12.8679 32.9708 12.8796C33.3208 12.8895 33.6518 13.0442 33.8845 13.3061C36.5383 16.2939 38 20.1431 38 24.1434C38.0006 27.9922 36.634 31.7313 34.152 34.6713Z" fill="white"/>
</g>
</g>
<defs>
<clipPath id="clip0_758_2">
<rect width="48" height="48" fill="white"/>
</clipPath>
</defs>
</svg>
