<svg width="37" height="37" viewBox="0 0 37 37" fill="none" xmlns="http://www.w3.org/2000/svg">
<path d="M1.03208 18.5C1.03208 8.85452 8.85422 1.03226 18.4997 1.03208C28.1464 1.03977 35.9679 8.85528 35.9679 18.5C35.9679 28.1456 28.1456 35.9679 18.5 35.9679C8.85441 35.9679 1.03208 28.1456 1.03208 18.5Z" fill="black" stroke="#E90000" stroke-width="2.06416"/>
<path d="M22.4371 25.2165L22.6065 25.3846C23.1206 26.0412 23.0811 26.9873 22.4802 27.6045C21.8211 28.2814 20.7346 28.2987 20.0495 27.6449C20.0447 27.6403 20.0401 27.636 20.0359 27.6323L20.0352 27.6307L20.0053 27.6012L12.1106 19.7787C11.4451 19.1193 11.4434 18.0455 12.1112 17.3752C12.1114 17.375 12.1116 17.3748 12.1117 17.3746L20.0053 9.55323L20.0054 9.55326L20.0086 9.54994C20.6681 8.8726 21.7554 8.85575 22.4405 9.51061C23.1225 10.1625 23.1397 11.235 22.4814 11.9124C22.4766 11.9172 22.4723 11.9218 22.4684 11.926L22.4668 11.9268L22.4371 11.9563L15.9399 18.4032L15.7553 18.5864L15.9399 18.7695L22.4371 25.2165Z" fill="#E90000" stroke="#E90000" stroke-width="0.516039"/>
</svg>
