<svg width="75" height="75" viewBox="0 0 75 75" fill="none" xmlns="http://www.w3.org/2000/svg">
<path d="M49.2834 37.4984L72.5564 14.2254C75.8103 10.9715 75.8103 5.69422 72.5564 2.44042C69.3025 -0.813375 64.0291 -0.813475 60.7714 2.44042L37.4984 25.7134L14.2254 2.44042C10.9754 -0.813475 5.69422 -0.813475 2.44042 2.44042C-0.813375 5.69432 -0.813475 10.9716 2.44042 14.2254L25.7134 37.4984L2.44042 60.7714C-0.813475 64.0253 -0.813475 69.2987 2.44042 72.5564C4.06542 74.1853 6.20212 74.9978 8.33102 74.9978C10.4638 74.9978 12.5966 74.1853 14.2216 72.5564L37.4986 49.2834L60.7716 72.5564C62.4005 74.1853 64.5333 74.9978 66.6622 74.9978C68.795 74.9978 70.9278 74.1853 72.5528 72.5564C75.8067 69.3025 75.8067 64.0291 72.5528 60.7714L49.2834 37.4984Z" fill="#E90000"/>
</svg>
