<svg width="19" height="29" viewBox="0 0 19 29" fill="none" xmlns="http://www.w3.org/2000/svg">
<g clip-path="url(#clip0_66_408)">
<path d="M3.94379 10.2203C3.94379 8.56878 3.89328 6.91559 3.95496 5.26647C4.06343 2.35255 6.34326 0.139432 9.2921 0.00588537C12.0803 -0.120718 14.6379 1.89718 14.9339 4.69635C15.1471 6.71179 15.0693 8.75992 15.0739 10.7933C15.0776 12.4424 15.0888 14.0981 14.9522 15.739C14.8379 17.1133 13.9304 17.9832 12.5444 18.254C10.5204 18.6493 8.48317 18.637 6.45877 18.2642C4.91666 17.9799 4.00299 16.9336 3.96241 15.3788C3.91729 13.6607 3.95207 11.9405 3.95207 10.2212C3.94917 10.2212 3.94668 10.2212 3.94379 10.2212V10.2203Z" fill="white"/>
<path d="M4.98137 22.2954C2.206 21.7841 0.203533 19.4685 0.0677446 16.673C-0.0485861 14.2806 0.018894 11.8792 0.019722 9.48188C0.019722 8.9236 0.256109 8.50785 0.899034 8.48661C1.45792 8.46823 1.78911 8.83988 1.79201 9.52721C1.80029 11.5631 1.78538 13.5989 1.79035 15.6348C1.79822 18.8289 3.69718 20.7002 6.92008 20.6994C8.70893 20.699 10.4986 20.6622 12.2862 20.7018C15.2342 20.7672 17.3406 18.4258 17.1965 15.8468C17.0843 13.8395 17.1725 11.8216 17.1837 9.80819C17.1853 9.54273 17.1717 9.20744 17.3195 9.02897C17.5223 8.78393 17.9015 8.48416 18.1524 8.525C18.4488 8.57278 18.8098 8.9138 18.9224 9.20948C19.0591 9.56805 18.9721 10.012 18.9713 10.4187C18.968 12.319 18.9605 14.2189 18.9564 16.1192C18.9481 19.7323 16.1922 22.4612 12.5271 22.4804C11.5183 22.4857 6.45145 22.5666 4.98096 22.2958L4.98137 22.2954Z" fill="white"/>
<path d="M8.49303 27.1897C8.49303 26.2495 8.48682 25.396 8.49717 24.5428C8.49965 24.3215 8.51663 24.0871 8.59197 23.882C8.75219 23.4479 9.08876 23.2339 9.56153 23.3193C10.031 23.4038 10.2724 23.7089 10.2752 24.1781C10.281 25.1481 10.2769 26.1176 10.2769 27.1921C10.563 27.1921 10.8047 27.1921 11.0469 27.1921C11.8025 27.1933 12.5584 27.1811 13.3135 27.2015C13.8972 27.217 14.2694 27.5013 14.286 28.1131C14.3009 28.6583 13.9465 28.9789 13.3007 28.9927C12.5683 29.0083 11.8352 28.9956 11.1024 28.9952C9.29327 28.9944 7.48455 28.9997 5.67542 28.9907C4.87725 28.987 4.46947 28.664 4.48686 28.0886C4.50425 27.5082 4.91948 27.1962 5.70275 27.1909C6.61186 27.1848 7.5214 27.1897 8.4922 27.1897H8.49303Z" fill="white"/>
</g>
<defs>
<clipPath id="clip0_66_408">
<rect width="19" height="29" fill="white"/>
</clipPath>
</defs>
</svg>
