<svg width="48" height="48" viewBox="0 0 48 48" fill="none" xmlns="http://www.w3.org/2000/svg">
<circle cx="24" cy="24" r="24" fill="#E90000"/>
<g clip-path="url(#clip0_423_2)">
<path d="M24.0084 32.7281C24.0084 33.2214 23.7234 33.6695 23.2774 33.8787C23.105 33.9602 22.9202 33.9996 22.7366 33.9996C22.4459 33.9996 22.1579 33.8997 21.9252 33.7068L14.9738 27.9466H11.2715C10.5694 27.9472 10 27.3775 10 26.6754V21.6094C10 20.907 10.5694 20.3376 11.2715 20.3376H14.9741L21.9255 14.5774C22.3053 14.2626 22.832 14.1955 23.2777 14.4061C23.7234 14.6153 24.0087 15.0637 24.0087 15.5567L24.0084 32.7281ZM28.895 30.7412C28.864 30.7433 28.8342 30.7445 28.8035 30.7445C28.4676 30.7445 28.1438 30.6118 27.9046 30.3723L27.7345 30.2016C27.2885 29.7565 27.2361 29.0514 27.6117 28.5452C28.5639 27.2613 29.0665 25.7394 29.0665 24.1429C29.0665 22.4256 28.4959 20.8149 27.4161 19.4847C27.005 18.9791 27.0429 18.2448 27.5037 17.7843L27.6734 17.6143C27.9274 17.3603 28.2678 17.2219 28.6362 17.2438C28.9949 17.2619 29.3299 17.4307 29.5574 17.7088C31.0552 19.5416 31.8464 21.7668 31.8464 24.1432C31.8464 26.3564 31.1467 28.463 29.8225 30.2344C29.6013 30.5297 29.2631 30.7151 28.895 30.7412ZM34.152 34.6708C33.9221 34.9425 33.5895 35.1056 33.2335 35.1207C33.2161 35.1213 33.1983 35.1219 33.1802 35.1219C32.8435 35.1219 32.5203 34.9889 32.281 34.7496L32.114 34.5826C31.6472 34.1161 31.6156 33.3701 32.0399 32.8651C34.0906 30.4261 35.2204 27.3287 35.2204 24.1429C35.2204 20.8291 34.0109 17.639 31.8154 15.1603C31.3703 14.6571 31.3929 13.8954 31.8666 13.4199L32.0333 13.2529C32.2807 13.0043 32.6021 12.8674 32.9708 12.8791C33.3208 12.889 33.6518 13.0437 33.8845 13.3056C36.5383 16.2934 38 20.1426 38 24.1429C38.0006 27.9917 36.634 31.7308 34.152 34.6708Z" fill="white"/>
</g>
<defs>
<clipPath id="clip0_423_2">
<rect width="28" height="28" fill="white" transform="translate(10 10)"/>
</clipPath>
</defs>
</svg>
